<mxfile host="app.diagrams.net" modified="2023-05-04T06:45:30.162Z" agent="Mozilla/5.0 (Windows NT 10.0; Win64; x64) AppleWebKit/537.36 (KHTML, like Gecko) Chrome/112.0.0.0 Safari/537.36" etag="hPKOr0KA4Uh4mlfcAa4O" version="21.2.7" type="device">
  <diagram name="第 1 页" id="Amg9oB7mr2tey3x8w5mV">
    <mxGraphModel dx="664" dy="449" grid="1" gridSize="10" guides="1" tooltips="1" connect="1" arrows="1" fold="1" page="1" pageScale="1" pageWidth="827" pageHeight="1169" math="0" shadow="0">
      <root>
        <mxCell id="0" />
        <mxCell id="1" parent="0" />
        <mxCell id="0uwR2-eLHro5ahfevcD7-1" value="&lt;b style=&quot;font-size: 13px;&quot;&gt;Server&lt;/b&gt;" style="text;html=1;align=center;verticalAlign=middle;resizable=0;points=[];autosize=1;strokeColor=none;fillColor=none;fontSize=13;" vertex="1" parent="1">
          <mxGeometry x="390" y="130" width="60" height="30" as="geometry" />
        </mxCell>
        <mxCell id="0uwR2-eLHro5ahfevcD7-27" style="edgeStyle=orthogonalEdgeStyle;rounded=0;orthogonalLoop=1;jettySize=auto;html=1;exitX=0;exitY=1;exitDx=0;exitDy=0;entryX=0.5;entryY=0;entryDx=0;entryDy=0;" edge="1" parent="1" source="0uwR2-eLHro5ahfevcD7-3" target="0uwR2-eLHro5ahfevcD7-6">
          <mxGeometry relative="1" as="geometry" />
        </mxCell>
        <mxCell id="0uwR2-eLHro5ahfevcD7-28" style="edgeStyle=orthogonalEdgeStyle;rounded=0;orthogonalLoop=1;jettySize=auto;html=1;exitX=1;exitY=1;exitDx=0;exitDy=0;entryX=0.5;entryY=0;entryDx=0;entryDy=0;" edge="1" parent="1" source="0uwR2-eLHro5ahfevcD7-3" target="0uwR2-eLHro5ahfevcD7-9">
          <mxGeometry relative="1" as="geometry" />
        </mxCell>
        <mxCell id="0uwR2-eLHro5ahfevcD7-29" style="edgeStyle=orthogonalEdgeStyle;rounded=0;orthogonalLoop=1;jettySize=auto;html=1;exitX=0.25;exitY=1;exitDx=0;exitDy=0;entryX=0.5;entryY=0;entryDx=0;entryDy=0;" edge="1" parent="1" source="0uwR2-eLHro5ahfevcD7-3" target="0uwR2-eLHro5ahfevcD7-7">
          <mxGeometry relative="1" as="geometry">
            <Array as="points">
              <mxPoint x="365" y="210" />
            </Array>
          </mxGeometry>
        </mxCell>
        <mxCell id="0uwR2-eLHro5ahfevcD7-30" style="edgeStyle=orthogonalEdgeStyle;rounded=0;orthogonalLoop=1;jettySize=auto;html=1;exitX=0.75;exitY=1;exitDx=0;exitDy=0;entryX=0.5;entryY=0;entryDx=0;entryDy=0;" edge="1" parent="1" source="0uwR2-eLHro5ahfevcD7-3" target="0uwR2-eLHro5ahfevcD7-8">
          <mxGeometry relative="1" as="geometry">
            <Array as="points">
              <mxPoint x="475" y="210" />
            </Array>
          </mxGeometry>
        </mxCell>
        <mxCell id="0uwR2-eLHro5ahfevcD7-3" value="Zookeeper Kafka HDFS HIVE Spark" style="whiteSpace=wrap;html=1;fillColor=#fff2cc;strokeColor=#d6b656;fontStyle=1" vertex="1" parent="1">
          <mxGeometry x="290" y="180" width="260" height="30" as="geometry" />
        </mxCell>
        <mxCell id="0uwR2-eLHro5ahfevcD7-4" value="General&lt;br style=&quot;font-size: 13px;&quot;&gt;Deployed" style="text;html=1;align=center;verticalAlign=middle;resizable=0;points=[];autosize=1;strokeColor=none;fillColor=none;fontStyle=1;fontSize=13;" vertex="1" parent="1">
          <mxGeometry x="110" y="180" width="80" height="40" as="geometry" />
        </mxCell>
        <mxCell id="0uwR2-eLHro5ahfevcD7-5" value="Seperate&lt;br style=&quot;font-size: 13px;&quot;&gt;Deployed" style="text;html=1;align=center;verticalAlign=middle;resizable=0;points=[];autosize=1;strokeColor=none;fillColor=none;fontStyle=1;fontSize=13;" vertex="1" parent="1">
          <mxGeometry x="110" y="245" width="80" height="40" as="geometry" />
        </mxCell>
        <mxCell id="0uwR2-eLHro5ahfevcD7-31" value="" style="edgeStyle=orthogonalEdgeStyle;rounded=0;orthogonalLoop=1;jettySize=auto;html=1;" edge="1" parent="1" source="0uwR2-eLHro5ahfevcD7-6" target="0uwR2-eLHro5ahfevcD7-12">
          <mxGeometry relative="1" as="geometry" />
        </mxCell>
        <mxCell id="0uwR2-eLHro5ahfevcD7-6" value="flume" style="whiteSpace=wrap;html=1;fillColor=#fff2cc;strokeColor=#d6b656;fontStyle=1" vertex="1" parent="1">
          <mxGeometry x="220" y="250" width="70" height="30" as="geometry" />
        </mxCell>
        <mxCell id="0uwR2-eLHro5ahfevcD7-32" value="" style="edgeStyle=orthogonalEdgeStyle;rounded=0;orthogonalLoop=1;jettySize=auto;html=1;" edge="1" parent="1" source="0uwR2-eLHro5ahfevcD7-7" target="0uwR2-eLHro5ahfevcD7-13">
          <mxGeometry relative="1" as="geometry" />
        </mxCell>
        <mxCell id="0uwR2-eLHro5ahfevcD7-7" value="mongoDB" style="whiteSpace=wrap;html=1;fillColor=#fff2cc;strokeColor=#d6b656;fontStyle=1" vertex="1" parent="1">
          <mxGeometry x="330" y="250" width="70" height="30" as="geometry" />
        </mxCell>
        <mxCell id="0uwR2-eLHro5ahfevcD7-33" value="" style="edgeStyle=orthogonalEdgeStyle;rounded=0;orthogonalLoop=1;jettySize=auto;html=1;" edge="1" parent="1" source="0uwR2-eLHro5ahfevcD7-8" target="0uwR2-eLHro5ahfevcD7-14">
          <mxGeometry relative="1" as="geometry" />
        </mxCell>
        <mxCell id="0uwR2-eLHro5ahfevcD7-8" value="grafana" style="whiteSpace=wrap;html=1;fillColor=#fff2cc;strokeColor=#d6b656;fontStyle=1" vertex="1" parent="1">
          <mxGeometry x="440" y="250" width="70" height="30" as="geometry" />
        </mxCell>
        <mxCell id="0uwR2-eLHro5ahfevcD7-34" value="" style="edgeStyle=orthogonalEdgeStyle;rounded=0;orthogonalLoop=1;jettySize=auto;html=1;" edge="1" parent="1" source="0uwR2-eLHro5ahfevcD7-9" target="0uwR2-eLHro5ahfevcD7-15">
          <mxGeometry relative="1" as="geometry" />
        </mxCell>
        <mxCell id="0uwR2-eLHro5ahfevcD7-9" value="mysql" style="whiteSpace=wrap;html=1;fillColor=#fff2cc;strokeColor=#d6b656;fontStyle=1" vertex="1" parent="1">
          <mxGeometry x="550" y="250" width="70" height="30" as="geometry" />
        </mxCell>
        <mxCell id="0uwR2-eLHro5ahfevcD7-10" value="Server&lt;br&gt;Charactor" style="text;html=1;align=center;verticalAlign=middle;resizable=0;points=[];autosize=1;strokeColor=none;fillColor=none;fontStyle=1;fontSize=13;" vertex="1" parent="1">
          <mxGeometry x="110" y="335" width="80" height="40" as="geometry" />
        </mxCell>
        <mxCell id="0uwR2-eLHro5ahfevcD7-12" value="&lt;b&gt;&lt;font style=&quot;font-size: 13px;&quot;&gt;master 01&lt;/font&gt;&lt;/b&gt;&lt;br&gt;namenode&lt;br&gt;active data colelctor" style="shape=process;whiteSpace=wrap;html=1;backgroundOutline=1;verticalAlign=top;fillColor=#dae8fc;strokeColor=#6c8ebf;" vertex="1" parent="1">
          <mxGeometry x="210" y="310" width="90" height="90" as="geometry" />
        </mxCell>
        <mxCell id="0uwR2-eLHro5ahfevcD7-13" value="&lt;b&gt;&lt;font style=&quot;font-size: 13px;&quot;&gt;master 02&lt;/font&gt;&lt;/b&gt;&lt;br&gt;job manager" style="shape=process;whiteSpace=wrap;html=1;backgroundOutline=1;verticalAlign=top;fillColor=#dae8fc;strokeColor=#6c8ebf;" vertex="1" parent="1">
          <mxGeometry x="320" y="310" width="90" height="90" as="geometry" />
        </mxCell>
        <mxCell id="0uwR2-eLHro5ahfevcD7-14" value="&lt;b&gt;&lt;font style=&quot;font-size: 13px;&quot;&gt;worker 01&lt;/font&gt;&lt;/b&gt;&lt;br&gt;executor" style="shape=process;whiteSpace=wrap;html=1;backgroundOutline=1;verticalAlign=top;fillColor=#dae8fc;strokeColor=#6c8ebf;" vertex="1" parent="1">
          <mxGeometry x="430" y="310" width="90" height="90" as="geometry" />
        </mxCell>
        <mxCell id="0uwR2-eLHro5ahfevcD7-15" value="&lt;b&gt;&lt;font style=&quot;font-size: 13px;&quot;&gt;worker 02&lt;/font&gt;&lt;/b&gt;&lt;br&gt;uer, repo data collector" style="shape=process;whiteSpace=wrap;html=1;backgroundOutline=1;verticalAlign=top;fillColor=#dae8fc;strokeColor=#6c8ebf;" vertex="1" parent="1">
          <mxGeometry x="540" y="310" width="90" height="90" as="geometry" />
        </mxCell>
      </root>
    </mxGraphModel>
  </diagram>
</mxfile>
